<svg viewBox="0 0 512 512" xml:space="preserve" xmlns="http://www.w3.org/2000/svg" fill-rule="evenodd" clip-rule="evenodd" stroke-linejoin="round" stroke-miterlimit="2"><path d="M0 0h512v512H0z" fill="#052438" class="fill-12100e"></path><path d="M122.182 171.234a13.32 13.32 0 0 0-4.335-11.238L85.73 121.307v-5.779h99.719l77.078 169.041 67.765-169.041h95.062v5.779l-27.459 26.327a8.022 8.022 0 0 0-3.051 7.707v193.441a8.02 8.02 0 0 0 3.051 7.706l26.815 26.328v5.779H289.826v-5.779l27.779-26.971c2.731-2.728 2.731-3.531 2.731-7.704V191.782l-77.238 196.169h-10.437l-89.926-196.169v131.476a18.144 18.144 0 0 0 4.978 15.09l36.132 43.824v5.779H81.395v-5.779l36.131-43.824a17.501 17.501 0 0 0 4.656-15.09V171.234Z" fill="#922b55" fill-rule="nonzero" class="fill-ffffff"></path></svg>